<mxfile host="app.diagrams.net" modified="2023-09-15T17:29:58.309Z" agent="Mozilla/5.0 (Windows NT 10.0; Win64; x64) AppleWebKit/537.36 (KHTML, like Gecko) Chrome/116.0.0.0 Safari/537.36" etag="TIubwVmerDo3POxODxLT" version="21.7.5" type="github">
  <diagram name="Page-1" id="2YBvvXClWsGukQMizWep">
    <mxGraphModel dx="897" dy="534" grid="1" gridSize="10" guides="1" tooltips="1" connect="1" arrows="1" fold="1" page="1" pageScale="1" pageWidth="850" pageHeight="1100" math="0" shadow="0">
      <root>
        <mxCell id="0" />
        <mxCell id="1" parent="0" />
        <mxCell id="aM9ryv3xv72pqoxQDRHE-1" value=":СТО App" style="shape=umlLifeline;perimeter=lifelinePerimeter;whiteSpace=wrap;html=1;container=0;dropTarget=0;collapsible=0;recursiveResize=0;outlineConnect=0;portConstraint=eastwest;newEdgeStyle={&quot;edgeStyle&quot;:&quot;elbowEdgeStyle&quot;,&quot;elbow&quot;:&quot;vertical&quot;,&quot;curved&quot;:0,&quot;rounded&quot;:0};labelBackgroundColor=none;rounded=1;" parent="1" vertex="1">
          <mxGeometry x="40" y="40" width="100" height="740" as="geometry" />
        </mxCell>
        <mxCell id="aM9ryv3xv72pqoxQDRHE-2" value="" style="html=1;points=[];perimeter=orthogonalPerimeter;outlineConnect=0;targetShapes=umlLifeline;portConstraint=eastwest;newEdgeStyle={&quot;edgeStyle&quot;:&quot;elbowEdgeStyle&quot;,&quot;elbow&quot;:&quot;vertical&quot;,&quot;curved&quot;:0,&quot;rounded&quot;:0};labelBackgroundColor=none;rounded=1;" parent="aM9ryv3xv72pqoxQDRHE-1" vertex="1">
          <mxGeometry x="45" y="70" width="10" height="560" as="geometry" />
        </mxCell>
        <mxCell id="aM9ryv3xv72pqoxQDRHE-3" value="dispatch" style="html=1;verticalAlign=bottom;startArrow=oval;endArrow=block;startSize=8;edgeStyle=elbowEdgeStyle;elbow=vertical;curved=0;rounded=1;labelBackgroundColor=none;fontColor=default;" parent="aM9ryv3xv72pqoxQDRHE-1" target="aM9ryv3xv72pqoxQDRHE-2" edge="1">
          <mxGeometry relative="1" as="geometry">
            <mxPoint x="-15" y="70" as="sourcePoint" />
          </mxGeometry>
        </mxCell>
        <mxCell id="aM9ryv3xv72pqoxQDRHE-7" value="&lt;font style=&quot;font-size: 9px;&quot;&gt;POST:&amp;nbsp;https://b2b.taxi.yandex.net/b2b/cargo/integration/v2/claims/create&lt;/font&gt;" style="html=1;verticalAlign=bottom;endArrow=block;edgeStyle=elbowEdgeStyle;elbow=vertical;curved=0;rounded=1;labelBackgroundColor=none;fontColor=default;fontSize=9;" parent="1" edge="1" target="aM9ryv3xv72pqoxQDRHE-6">
          <mxGeometry x="-0.0133" relative="1" as="geometry">
            <mxPoint x="95" y="160" as="sourcePoint" />
            <Array as="points">
              <mxPoint x="180" y="160" />
            </Array>
            <mxPoint x="415" y="160" as="targetPoint" />
            <mxPoint as="offset" />
          </mxGeometry>
        </mxCell>
        <mxCell id="aM9ryv3xv72pqoxQDRHE-9" value=" claim_id," style="html=1;verticalAlign=bottom;endArrow=open;edgeStyle=elbowEdgeStyle;elbow=horizontal;curved=0;rounded=1;dashed=1;endFill=0;labelBackgroundColor=none;fontColor=default;fontSize=10;" parent="1" edge="1" source="aM9ryv3xv72pqoxQDRHE-6">
          <mxGeometry relative="1" as="geometry">
            <mxPoint x="425.5" y="180" as="sourcePoint" />
            <Array as="points">
              <mxPoint x="296" y="180" />
            </Array>
            <mxPoint x="95" y="180" as="targetPoint" />
          </mxGeometry>
        </mxCell>
        <mxCell id="aM9ryv3xv72pqoxQDRHE-5" value=":Я.Доставка App" style="shape=umlLifeline;perimeter=lifelinePerimeter;whiteSpace=wrap;html=1;container=0;dropTarget=0;collapsible=0;recursiveResize=0;outlineConnect=0;portConstraint=eastwest;newEdgeStyle={&quot;edgeStyle&quot;:&quot;elbowEdgeStyle&quot;,&quot;elbow&quot;:&quot;vertical&quot;,&quot;curved&quot;:0,&quot;rounded&quot;:0};labelBackgroundColor=none;rounded=1;" parent="1" vertex="1">
          <mxGeometry x="440" y="40" width="100" height="740" as="geometry" />
        </mxCell>
        <mxCell id="aM9ryv3xv72pqoxQDRHE-6" value="" style="html=1;points=[];perimeter=orthogonalPerimeter;outlineConnect=0;targetShapes=umlLifeline;portConstraint=eastwest;newEdgeStyle={&quot;edgeStyle&quot;:&quot;elbowEdgeStyle&quot;,&quot;elbow&quot;:&quot;vertical&quot;,&quot;curved&quot;:0,&quot;rounded&quot;:0};labelBackgroundColor=none;rounded=1;" parent="aM9ryv3xv72pqoxQDRHE-5" vertex="1">
          <mxGeometry x="45" y="80" width="10" height="550" as="geometry" />
        </mxCell>
        <mxCell id="XswiuY4ydzR14CQenFJ5-14" value="&lt;div style=&quot;font-size: 9px;&quot;&gt;&lt;font style=&quot;font-size: 9px;&quot;&gt;POST b2b.taxi.yandex.net/b2b/cargo/integration/v2/claims/accept\&lt;/font&gt;&lt;/div&gt;&lt;div style=&quot;font-size: 9px;&quot;&gt;&lt;font style=&quot;font-size: 9px;&quot;&gt;?claim_id={string}&lt;/font&gt;&lt;/div&gt;" style="html=1;verticalAlign=bottom;endArrow=block;edgeStyle=elbowEdgeStyle;elbow=vertical;curved=0;rounded=1;labelBackgroundColor=none;fontColor=default;fontSize=9;" parent="1" target="aM9ryv3xv72pqoxQDRHE-6" edge="1">
          <mxGeometry x="-0.0133" relative="1" as="geometry">
            <mxPoint x="100" y="250" as="sourcePoint" />
            <Array as="points">
              <mxPoint x="185" y="250" />
            </Array>
            <mxPoint x="390" y="250" as="targetPoint" />
            <mxPoint as="offset" />
          </mxGeometry>
        </mxCell>
        <mxCell id="XswiuY4ydzR14CQenFJ5-15" value=" same_day_data и route_id" style="html=1;verticalAlign=bottom;endArrow=open;edgeStyle=elbowEdgeStyle;elbow=horizontal;curved=0;rounded=1;dashed=1;endFill=0;labelBackgroundColor=none;fontColor=default;fontSize=10;" parent="1" source="aM9ryv3xv72pqoxQDRHE-6" edge="1">
          <mxGeometry relative="1" as="geometry">
            <mxPoint x="410" y="270" as="sourcePoint" />
            <Array as="points">
              <mxPoint x="301" y="270" />
            </Array>
            <mxPoint x="100" y="270" as="targetPoint" />
          </mxGeometry>
        </mxCell>
        <mxCell id="XswiuY4ydzR14CQenFJ5-17" value="1.Создание заявки на доставку" style="text;html=1;strokeColor=none;fillColor=none;align=center;verticalAlign=middle;whiteSpace=wrap;rounded=0;" parent="1" vertex="1">
          <mxGeometry x="160" y="120" width="290" height="20" as="geometry" />
        </mxCell>
        <mxCell id="XswiuY4ydzR14CQenFJ5-19" value="2.Потверждение доставки" style="text;html=1;strokeColor=none;fillColor=none;align=center;verticalAlign=middle;whiteSpace=wrap;rounded=0;" parent="1" vertex="1">
          <mxGeometry x="140" y="200" width="290" height="20" as="geometry" />
        </mxCell>
        <mxCell id="XswiuY4ydzR14CQenFJ5-26" value="" style="rounded=0;whiteSpace=wrap;html=1;" parent="1" vertex="1">
          <mxGeometry x="90" y="200" width="10" height="120" as="geometry" />
        </mxCell>
        <mxCell id="XswiuY4ydzR14CQenFJ5-27" value="&lt;div style=&quot;font-size: 9px;&quot;&gt;&lt;div&gt;GET b2b.taxi.yandex.net/b2b/cargo/integration/v2/claims/performer-position\&lt;/div&gt;&lt;div&gt;?claim_id={string}&lt;/div&gt;&lt;/div&gt;" style="html=1;verticalAlign=bottom;endArrow=block;edgeStyle=elbowEdgeStyle;elbow=vertical;curved=0;rounded=1;labelBackgroundColor=none;fontColor=default;fontSize=9;" parent="1" edge="1">
          <mxGeometry x="-0.0133" relative="1" as="geometry">
            <mxPoint x="95" y="360" as="sourcePoint" />
            <Array as="points">
              <mxPoint x="185" y="360" />
            </Array>
            <mxPoint x="485" y="360" as="targetPoint" />
            <mxPoint as="offset" />
          </mxGeometry>
        </mxCell>
        <mxCell id="XswiuY4ydzR14CQenFJ5-28" value=" position" style="html=1;verticalAlign=bottom;endArrow=open;edgeStyle=elbowEdgeStyle;elbow=horizontal;curved=0;rounded=1;dashed=1;endFill=0;labelBackgroundColor=none;fontColor=default;fontSize=10;" parent="1" edge="1">
          <mxGeometry relative="1" as="geometry">
            <mxPoint x="485" y="380" as="sourcePoint" />
            <Array as="points">
              <mxPoint x="301" y="380" />
            </Array>
            <mxPoint x="95" y="380" as="targetPoint" />
          </mxGeometry>
        </mxCell>
        <mxCell id="XswiuY4ydzR14CQenFJ5-29" value="3.Информация о курьере" style="text;html=1;strokeColor=none;fillColor=none;align=center;verticalAlign=middle;whiteSpace=wrap;rounded=0;" parent="1" vertex="1">
          <mxGeometry x="160" y="310" width="250" height="20" as="geometry" />
        </mxCell>
        <mxCell id="XswiuY4ydzR14CQenFJ5-33" value="&lt;div style=&quot;&quot;&gt;&lt;div style=&quot;&quot;&gt;GET b2b.taxi.yandex.net/b2b/cargo/integration/v2/claims/document\&lt;/div&gt;&lt;div style=&quot;&quot;&gt;?claim_id={string}\&lt;/div&gt;&lt;div style=&quot;&quot;&gt;&amp;amp;document_type={string}\&lt;/div&gt;&lt;div style=&quot;&quot;&gt;&amp;amp;version={integer}\&lt;/div&gt;&lt;div style=&quot;&quot;&gt;&amp;amp;status={string}&lt;/div&gt;&lt;/div&gt;" style="html=1;verticalAlign=bottom;endArrow=block;edgeStyle=elbowEdgeStyle;elbow=vertical;curved=0;rounded=1;labelBackgroundColor=none;fontColor=default;fontSize=9;" parent="1" edge="1" target="aM9ryv3xv72pqoxQDRHE-6">
          <mxGeometry x="-0.0133" relative="1" as="geometry">
            <mxPoint x="95" y="510" as="sourcePoint" />
            <Array as="points">
              <mxPoint x="185" y="510" />
            </Array>
            <mxPoint x="415" y="510" as="targetPoint" />
            <mxPoint as="offset" />
          </mxGeometry>
        </mxCell>
        <mxCell id="XswiuY4ydzR14CQenFJ5-34" value="Документ в формате PDF" style="html=1;verticalAlign=bottom;endArrow=open;edgeStyle=elbowEdgeStyle;elbow=horizontal;curved=0;rounded=1;dashed=1;endFill=0;labelBackgroundColor=none;fontColor=default;fontSize=10;" parent="1" edge="1" source="aM9ryv3xv72pqoxQDRHE-6">
          <mxGeometry relative="1" as="geometry">
            <mxPoint x="415" y="530" as="sourcePoint" />
            <Array as="points">
              <mxPoint x="301" y="530" />
            </Array>
            <mxPoint x="95" y="530" as="targetPoint" />
          </mxGeometry>
        </mxCell>
        <mxCell id="XswiuY4ydzR14CQenFJ5-35" value="4.Коды подтверждения и акты приёма-передачи" style="text;html=1;strokeColor=none;fillColor=none;align=center;verticalAlign=middle;whiteSpace=wrap;rounded=0;" parent="1" vertex="1">
          <mxGeometry x="140" y="420" width="290" height="20" as="geometry" />
        </mxCell>
        <mxCell id="XswiuY4ydzR14CQenFJ5-36" value="&lt;div style=&quot;&quot;&gt;&lt;div style=&quot;&quot;&gt;&lt;div&gt;POST b2b.taxi.yandex.net/b2b/cargo/integration/v2/claims/proof-of-delivery/info\&lt;/div&gt;&lt;div&gt;?claim_id={string}&lt;/div&gt;&lt;/div&gt;&lt;/div&gt;" style="html=1;verticalAlign=bottom;endArrow=block;edgeStyle=elbowEdgeStyle;elbow=vertical;curved=0;rounded=1;labelBackgroundColor=none;fontColor=default;fontSize=9;" parent="1" edge="1" target="aM9ryv3xv72pqoxQDRHE-6">
          <mxGeometry x="-0.0133" relative="1" as="geometry">
            <mxPoint x="95" y="630" as="sourcePoint" />
            <Array as="points">
              <mxPoint x="185" y="630" />
            </Array>
            <mxPoint x="415" y="630" as="targetPoint" />
            <mxPoint as="offset" />
          </mxGeometry>
        </mxCell>
        <mxCell id="XswiuY4ydzR14CQenFJ5-37" value="claim_id," style="html=1;verticalAlign=bottom;endArrow=open;edgeStyle=elbowEdgeStyle;elbow=vertical;curved=0;rounded=1;dashed=1;endFill=0;labelBackgroundColor=none;fontColor=default;fontSize=10;" parent="1" edge="1" source="aM9ryv3xv72pqoxQDRHE-6">
          <mxGeometry relative="1" as="geometry">
            <mxPoint x="415" y="650" as="sourcePoint" />
            <Array as="points">
              <mxPoint x="301" y="650" />
            </Array>
            <mxPoint x="95" y="650" as="targetPoint" />
          </mxGeometry>
        </mxCell>
        <mxCell id="XswiuY4ydzR14CQenFJ5-38" value="5.Коды подтверждения и акты приёма-передачи" style="text;html=1;strokeColor=none;fillColor=none;align=center;verticalAlign=middle;whiteSpace=wrap;rounded=0;" parent="1" vertex="1">
          <mxGeometry x="155" y="580" width="290" height="20" as="geometry" />
        </mxCell>
      </root>
    </mxGraphModel>
  </diagram>
</mxfile>
